<svg width="814" height="713" viewBox="0 0 814 713" fill="none" xmlns="http://www.w3.org/2000/svg">
<g clip-path="url(#clip0_1_3)">
<path d="M501.618 203C480.146 203 458.754 188.241 441.382 161.441C426.107 137.876 416.618 108.585 416.618 85C416.618 73.8376 418.817 62.7846 423.088 52.4719C427.36 42.1592 433.621 32.7889 441.514 24.8959C449.407 17.0029 458.777 10.7419 469.09 6.47024C479.403 2.19859 490.456 0 501.618 0C512.78 0 523.834 2.19859 534.146 6.47024C544.459 10.7419 553.829 17.0029 561.722 24.8959C569.615 32.7889 575.876 42.1592 580.148 52.4719C584.42 62.7846 586.618 73.8376 586.618 85C586.618 108.585 577.129 137.876 561.854 161.441C544.482 188.241 523.09 203 501.618 203ZM501.618 2C479.613 2.02484 458.516 10.7774 442.956 26.3376C427.396 41.8977 418.643 62.9946 418.618 85C418.618 130.808 455.802 201 501.618 201C547.434 201 584.618 130.808 584.618 85C584.593 62.9946 575.841 41.8977 560.281 26.3376C544.72 10.7774 523.623 2.02484 501.618 2Z" fill="#3F3D56"/>
<path d="M509.632 221H493.605C492.856 221 492.117 220.832 491.442 220.508C490.767 220.184 490.173 219.713 489.705 219.129C489.236 218.545 488.905 217.863 488.735 217.134C488.565 216.404 488.561 215.646 488.724 214.916L491.816 201H511.42L514.512 214.916C514.675 215.646 514.671 216.404 514.501 217.134C514.331 217.863 514 218.545 513.532 219.129C513.063 219.713 512.469 220.184 511.794 220.508C511.119 220.832 510.38 221 509.632 221ZM493.42 203L490.676 215.349C490.579 215.788 490.581 216.243 490.683 216.68C490.785 217.118 490.983 217.527 491.264 217.877C491.546 218.228 491.902 218.51 492.307 218.705C492.712 218.899 493.155 219 493.605 219H509.632C510.081 219 510.524 218.899 510.929 218.705C511.334 218.51 511.691 218.228 511.972 217.877C512.253 217.527 512.452 217.118 512.553 216.68C512.655 216.243 512.658 215.788 512.56 215.349L509.816 203H493.42Z" fill="#3F3D56"/>
<path d="M462.058 24.8613C448.862 32.8743 439.373 45.7834 435.663 60.7694C434.637 64.9373 434.092 69.209 434.038 73.501C434.052 73.8899 434.215 74.2583 434.495 74.5286C434.775 74.7989 435.149 74.95 435.538 74.95C435.927 74.95 436.301 74.7989 436.581 74.5286C436.861 74.2583 437.025 73.8899 437.038 73.501C437.343 58.9191 443.387 45.0459 453.859 34.8936C456.796 32.0437 460.056 29.5463 463.572 27.4517C463.901 27.2439 464.137 26.9164 464.229 26.5383C464.322 26.1601 464.263 25.7609 464.067 25.4248C463.871 25.0888 463.551 24.8422 463.176 24.737C462.802 24.6319 462.401 24.6765 462.058 24.8613Z" fill="#3F3D56"/>
<path d="M487.726 204.884C505.848 203.957 526.471 203.462 540.595 216.83C546.486 222.406 550.202 229.878 549.978 238.091C549.734 247.03 545.189 255.403 539.556 262.118C527.43 276.574 509.647 285.612 492.592 292.897C474.466 300.64 455.583 306.686 438.168 316.029C422.877 324.232 408.624 335.305 399.387 350.222C394.842 357.453 391.828 365.538 390.531 373.979C389.339 382.439 389.768 391.05 391.794 399.351C395.862 416.364 405.877 431.401 419.222 442.574C432.728 453.881 449.088 461.411 466.039 465.909C486.161 471.249 507.127 472.458 527.86 472.579C549.273 472.704 570.703 471.656 592.101 472.856C597.306 473.148 602.502 473.579 607.68 474.179C609.595 474.401 609.579 471.399 607.68 471.179C586.304 468.702 564.759 469.27 543.287 469.512C522.235 469.751 501.006 469.677 480.216 465.96C462.291 462.756 444.715 456.75 429.513 446.564C414.95 436.806 403.082 423.124 397.076 406.522C391.21 390.306 391.271 372.358 399.127 356.812C406.992 341.246 420.712 329.471 435.62 320.878C452.825 310.961 471.769 304.755 490.046 297.194C507.309 290.052 524.966 281.536 538.227 268.035C544.368 261.782 549.628 254.173 551.88 245.611C552.979 241.606 553.244 237.418 552.658 233.307C552.073 229.196 550.65 225.248 548.477 221.71C544.13 215.055 537.924 209.824 530.63 206.665C521.827 202.699 512.06 201.555 502.49 201.459C497.565 201.409 492.643 201.633 487.726 201.884C485.804 201.983 485.793 204.983 487.726 204.884Z" fill="#3F3D56"/>
<path d="M395.471 691.743L383.447 694.137L368.491 648.9L386.237 645.366L395.471 691.743Z" fill="#FFB8B8"/>
<path d="M400.859 702.788L362.089 710.508L361.991 710.017C361.597 708.036 361.596 705.996 361.99 704.014C362.384 702.032 363.164 700.147 364.286 698.467C365.408 696.787 366.85 695.344 368.53 694.221C370.21 693.098 372.095 692.317 374.076 691.922L374.077 691.922L397.756 687.207L400.859 702.788Z" fill="#2F2E41"/>
<path d="M510.334 698.624L498.074 698.623L484.242 651.335L502.336 651.336L510.334 698.624Z" fill="#FFB8B8"/>
<path d="M513.46 710.508L473.93 710.506V710.006C473.93 707.986 474.328 705.985 475.101 704.118C475.874 702.251 477.008 700.555 478.436 699.126C479.865 697.698 481.561 696.564 483.428 695.791C485.295 695.018 487.296 694.62 489.316 694.62L513.461 694.621L513.46 710.508Z" fill="#2F2E41"/>
<path d="M481.069 563.562C482.047 562.334 482.745 560.906 483.112 559.379C483.48 557.852 483.508 556.263 483.194 554.725C482.881 553.186 482.234 551.734 481.3 550.472C480.365 549.21 479.164 548.169 477.783 547.421L453.291 452.691L431.988 462.28L462.762 552.381C461.659 554.785 461.476 557.509 462.248 560.038C463.02 562.567 464.692 564.725 466.949 566.103C469.205 567.481 471.889 567.984 474.491 567.516C477.094 567.047 479.434 565.641 481.069 563.562Z" fill="#FFB8B8"/>
<path d="M459.021 468.564L435.345 474.155C434.671 474.315 433.971 474.327 433.292 474.191C432.614 474.055 431.972 473.774 431.412 473.368C430.851 472.962 430.385 472.44 430.044 471.837C429.704 471.235 429.497 470.566 429.438 469.876L427.383 445.709C426.589 442.258 427.195 438.633 429.07 435.628C430.945 432.623 433.934 430.485 437.383 429.681C440.832 428.877 444.459 429.474 447.469 431.34C450.479 433.206 452.626 436.19 453.439 439.636L462.389 462.094C462.645 462.737 462.76 463.428 462.725 464.119C462.69 464.811 462.506 465.486 462.187 466.1C461.867 466.714 461.419 467.252 460.873 467.677C460.326 468.102 459.695 468.405 459.021 468.564Z" fill="#0033AD"/>
<path d="M378.252 683.168C377.218 683.169 376.216 682.812 375.416 682.159C374.615 681.506 374.064 680.596 373.858 679.584L361.929 622.326C361.187 618.719 361.166 615.002 361.866 611.387C362.566 607.772 363.974 604.332 366.008 601.263L403.589 544.892V502.644L447.217 492.813L447.405 492.966C470.037 511.447 468.735 534.229 468.596 535.99L511.472 675.218C511.68 675.891 511.726 676.604 511.608 677.298C511.49 677.992 511.21 678.649 510.792 679.216C510.374 679.783 509.828 680.243 509.199 680.561C508.571 680.878 507.876 681.043 507.172 681.043H494.297C493.397 681.046 492.517 680.778 491.772 680.273C491.026 679.769 490.45 679.051 490.119 678.214L443.908 567.84L389.521 612.6C389.086 612.959 388.743 613.418 388.523 613.938C388.303 614.458 388.212 615.024 388.257 615.586L393.272 677.131C393.373 678.299 393.012 679.46 392.266 680.365C391.52 681.27 390.45 681.846 389.284 681.969L378.76 683.139C378.591 683.158 378.422 683.167 378.252 683.168Z" fill="#2F2E41"/>
<path d="M434.022 413.955C447.587 413.955 458.583 402.959 458.583 389.394C458.583 375.829 447.587 364.833 434.022 364.833C420.457 364.833 409.461 375.829 409.461 389.394C409.461 402.959 420.457 413.955 434.022 413.955Z" fill="#FFB8B8"/>
<path d="M405.913 507.331C405.018 507.331 404.144 507.066 403.4 506.568C402.656 506.071 402.076 505.364 401.735 504.538C393.507 484.337 393.644 458.824 397.252 443.666C398.789 437.249 402.53 431.574 407.822 427.632C413.115 423.69 419.623 421.73 426.212 422.094C430.133 422.303 433.968 423.329 437.47 425.104C440.973 426.88 444.066 429.367 446.552 432.406C449.039 435.445 450.864 438.97 451.91 442.755C452.957 446.54 453.202 450.501 452.63 454.386C450.707 467.42 449.926 485.779 449.679 493.066C449.642 494.039 449.292 494.973 448.68 495.731C448.068 496.488 447.228 497.027 446.285 497.267L407.011 507.194C406.652 507.285 406.283 507.331 405.913 507.331Z" fill="#0033AD"/>
<path d="M406.365 360.705C405.853 360.915 405.325 361.085 404.787 361.213L387.491 407.693L395.155 416.99L382.636 430.388L367.47 415.249C366.245 414.025 365.45 412.438 365.203 410.724C364.957 409.011 365.274 407.264 366.105 405.745L393.2 356.255C392.138 354.407 391.664 352.279 391.841 350.155C392.018 348.031 392.837 346.011 394.19 344.363C395.543 342.716 397.365 341.52 399.415 340.933C401.464 340.347 403.643 340.398 405.663 341.081C407.682 341.764 409.446 343.045 410.72 344.754C411.993 346.463 412.716 348.52 412.792 350.65C412.868 352.781 412.294 354.884 411.146 356.68C409.998 358.476 408.33 359.88 406.365 360.705Z" fill="#FFB8B8"/>
<path d="M378.212 429.058L392.007 409.019C392.4 408.449 392.91 407.97 393.505 407.616C394.099 407.261 394.763 407.038 395.451 406.963C396.139 406.887 396.835 406.961 397.492 407.179C398.149 407.397 398.751 407.755 399.258 408.226L417.004 424.759C419.91 426.783 421.895 429.878 422.523 433.364C423.151 436.85 422.371 440.442 420.354 443.354C418.337 446.265 415.248 448.258 411.764 448.895C408.279 449.532 404.685 448.761 401.768 446.752L380.058 436.114C379.437 435.809 378.888 435.374 378.45 434.838C378.012 434.302 377.695 433.678 377.519 433.009C377.344 432.339 377.315 431.64 377.435 430.958C377.554 430.276 377.819 429.628 378.212 429.058Z" fill="#0033AD"/>
<path d="M432.608 417.543C430.838 415.581 431.873 412.21 433.51 410.116C435.147 408.021 437.359 406.242 438.005 403.586C439.104 399.063 435.002 394.939 430.91 393.478C426.818 392.016 422.233 391.903 418.629 389.34C413.167 385.455 411.922 376.601 415.061 370.383C418.199 364.165 424.76 360.599 431.271 360.066C437.782 359.533 444.253 361.65 450.212 364.548C455.976 367.35 461.536 371 465.587 376.262C469.637 381.523 472.02 388.594 470.85 395.333C469.421 403.563 462.972 409.916 455.807 413.017C448.642 416.119 440.768 416.528 433.062 416.899L432.608 417.543Z" fill="#2F2E41"/>
<path d="M459.952 370.651C467.484 363.194 477.563 358.87 488.157 358.551C498.752 358.233 509.073 361.943 517.039 368.935C530.332 380.602 535.4 399.816 549.353 410.685C561.916 420.47 580.779 421.198 594.059 412.412C587.995 419.496 581.826 426.674 574.063 431.839C566.3 437.005 556.598 439.988 547.54 437.772C536.908 435.171 529.171 426.118 523.162 416.968C517.154 407.818 511.859 397.795 503.147 391.167C496.544 386.175 488.475 383.51 480.198 383.587C475.13 383.65 469.957 384.737 465.06 383.431C460.163 382.125 455.665 377.13 457.296 372.332L459.952 370.651Z" fill="#2F2E41"/>
<path d="M687 712H1C0.734784 712 0.480429 711.895 0.292892 711.707C0.105356 711.52 0 711.265 0 711C0 710.735 0.105356 710.48 0.292892 710.293C0.480429 710.105 0.734784 710 1 710H687C687.265 710 687.52 710.105 687.707 710.293C687.895 710.48 688 710.735 688 711C688 711.265 687.895 711.52 687.707 711.707C687.52 711.895 687.265 712 687 712Z" fill="#3F3D56"/>
<g clip-path="url(#clip1_1_3)">
<path d="M483.479 92.7258C483.304 95.7746 485.644 98.3847 488.683 98.5602C488.793 98.5602 488.902 98.5602 489.011 98.5602C492.073 98.5602 494.543 96.0817 494.522 93.011C494.522 89.9403 492.051 87.4618 488.989 87.4837C486.059 87.4837 483.632 89.7867 483.479 92.7258Z" fill="#0033AD"/>
<path d="M462.881 91.3001C461.897 91.2343 461.044 92.002 461 92.989C460.956 93.976 461.7 94.8315 462.684 94.8753C463.668 94.9411 464.499 94.1734 464.564 93.1864C464.63 92.1994 463.865 91.3659 462.881 91.3001Z" fill="#0033AD"/>
<path d="M483.129 60.5712C484.004 60.1325 484.354 59.0358 483.916 58.1585C483.479 57.2811 482.386 56.9302 481.511 57.3688C480.636 57.8075 480.286 58.8823 480.724 59.7596C481.161 60.6589 482.233 61.0318 483.129 60.5712Z" fill="#0033AD"/>
<path d="M488.727 70.3755C490.083 69.6955 490.629 68.0286 489.951 66.6687C489.274 65.3088 487.612 64.7605 486.256 65.4404C484.9 66.1204 484.354 67.7873 485.031 69.1472C485.709 70.5071 487.371 71.0554 488.727 70.3755Z" fill="#0033AD"/>
<path d="M469.878 77.1091C470.927 77.789 472.327 77.5039 473.027 76.4511C473.705 75.3983 473.42 73.9945 472.371 73.2926C471.321 72.6127 469.922 72.8978 469.222 73.9507C468.522 75.0035 468.828 76.4292 469.878 77.1091Z" fill="#0033AD"/>
<path d="M473.223 90.3131C471.693 90.2254 470.403 91.3879 470.315 92.9232C470.228 94.4586 471.387 95.7527 472.917 95.8404C474.448 95.9281 475.738 94.7657 475.826 93.2303C475.913 91.7169 474.754 90.4009 473.223 90.3131Z" fill="#0033AD"/>
<path d="M470.184 108.891C469.069 109.461 468.61 110.821 469.178 111.962C469.747 113.08 471.102 113.541 472.239 112.971C473.355 112.4 473.814 111.04 473.245 109.9C472.677 108.781 471.299 108.321 470.184 108.891Z" fill="#0033AD"/>
<path d="M480.899 84.5885C482.407 85.5755 484.419 85.1587 485.381 83.6453C486.365 82.1319 485.95 80.114 484.441 79.1489C482.932 78.1619 480.921 78.5787 479.958 80.0921C478.974 81.5836 479.39 83.6015 480.899 84.5885Z" fill="#0033AD"/>
<path d="M514.901 70.1561C516.17 70.9896 517.897 70.6387 518.728 69.3665C519.559 68.0944 519.209 66.3616 517.941 65.5281C516.673 64.6947 514.945 65.0456 514.114 66.3177C513.261 67.6118 513.611 69.3227 514.901 70.1561Z" fill="#0033AD"/>
<path d="M520.543 60.3957C521.374 60.944 522.467 60.7027 523.014 59.8693C523.561 59.0358 523.32 57.9391 522.489 57.3908C521.658 56.8424 520.565 57.0837 520.018 57.8952C519.493 58.7287 519.734 59.8473 520.543 60.3957Z" fill="#0033AD"/>
<path d="M515.317 87.4398C512.277 87.2644 509.653 89.6113 509.5 92.66C509.325 95.7088 511.665 98.3408 514.705 98.4944C514.814 98.4944 514.923 98.4944 515.011 98.4944C518.05 98.4944 520.521 96.0159 520.521 92.9452C520.543 90.028 518.247 87.5934 515.317 87.4398Z" fill="#0033AD"/>
<path d="M490.542 84.1937C491.482 86.058 493.385 87.2424 495.484 87.2424C498.523 87.2424 500.994 84.7639 500.994 81.6932C500.994 80.8378 500.797 79.9824 500.404 79.1928C499.026 76.4511 495.702 75.3544 492.991 76.7362C490.258 78.14 489.164 81.4739 490.542 84.1937Z" fill="#0033AD"/>
<path d="M533.816 77.1091C534.931 76.5388 535.369 75.157 534.8 74.0384C534.231 72.9198 532.854 72.4811 531.739 73.0514C530.623 73.6216 530.186 74.9815 530.733 76.1001C531.323 77.2188 532.679 77.6794 533.816 77.1091Z" fill="#0033AD"/>
<path d="M519.821 78.8638C518.225 79.6753 517.569 81.6274 518.378 83.2286C519.187 84.8297 521.133 85.4877 522.73 84.6762C524.326 83.8647 524.982 81.9126 524.173 80.3114C523.364 78.7103 521.418 78.0742 519.821 78.8638Z" fill="#0033AD"/>
<path d="M501.781 59.5622C503.028 59.628 504.099 58.6629 504.187 57.4127C504.274 56.1625 503.29 55.0877 502.044 55C500.797 54.9342 499.726 55.8774 499.638 57.1276C499.573 58.3997 500.535 59.4745 501.781 59.5622Z" fill="#0033AD"/>
<path d="M501.759 73.8848C503.553 73.9945 505.083 72.6127 505.171 70.8141C505.28 69.0156 503.902 67.4802 502.109 67.3925C500.316 67.2828 498.786 68.6646 498.698 70.4632C498.611 72.2617 499.966 73.7971 501.759 73.8848Z" fill="#0033AD"/>
<path d="M484.179 107.136C485.775 106.325 486.431 104.373 485.622 102.771C484.813 101.17 482.867 100.512 481.27 101.324C479.674 102.135 479.018 104.087 479.827 105.689C480.636 107.29 482.582 107.948 484.179 107.136Z" fill="#0033AD"/>
<path d="M503.859 78.6444C502.197 81.2107 502.897 84.6323 505.455 86.2993C508.013 87.9662 511.425 87.2644 513.086 84.6981C514.748 82.1319 514.049 78.7102 511.49 77.0433C510.594 76.4511 509.544 76.144 508.473 76.144C506.614 76.144 504.886 77.0872 503.859 78.6444Z" fill="#0033AD"/>
<path d="M513.458 101.806C512.081 99.0646 508.757 97.968 506.045 99.3498C503.312 100.732 502.219 104.066 503.596 106.785C504.974 109.527 508.298 110.624 511.009 109.242C513.721 107.882 514.836 104.592 513.48 101.85C513.48 101.828 513.48 101.828 513.458 101.806Z" fill="#0033AD"/>
<path d="M523.101 101.412C521.593 100.425 519.581 100.841 518.619 102.355C517.635 103.868 518.05 105.886 519.559 106.851C521.068 107.838 523.079 107.421 524.042 105.908C525.026 104.416 524.61 102.399 523.101 101.412Z" fill="#0033AD"/>
<path d="M533.685 93.0987C533.772 91.5634 532.613 90.2693 531.083 90.1815C529.552 90.0938 528.262 91.2563 528.174 92.7916C528.087 94.327 529.246 95.6211 530.777 95.7088C532.285 95.7965 533.597 94.6121 533.685 93.0987Z" fill="#0033AD"/>
<path d="M541.316 91.1247C540.332 91.0589 539.479 91.8265 539.436 92.8136C539.392 93.8006 540.135 94.656 541.119 94.6998C542.103 94.7656 542.934 93.998 543 93.011C543.044 92.0239 542.3 91.1905 541.316 91.1247Z" fill="#0033AD"/>
<path d="M534.122 108.891C533.073 108.211 531.673 108.496 530.973 109.549C530.295 110.602 530.58 112.005 531.629 112.707C532.679 113.387 534.078 113.102 534.778 112.049C535.478 110.997 535.172 109.571 534.122 108.891Z" fill="#0033AD"/>
<path d="M483.435 125.604C482.604 125.056 481.511 125.297 480.964 126.109C480.418 126.942 480.658 128.039 481.467 128.587C482.298 129.136 483.391 128.894 483.938 128.083C484.507 127.271 484.266 126.153 483.435 125.604Z" fill="#0033AD"/>
<path d="M520.871 125.429C519.996 125.868 519.646 126.964 520.084 127.842C520.521 128.719 521.614 129.07 522.489 128.631C523.364 128.193 523.714 127.118 523.276 126.24C522.839 125.341 521.767 124.968 520.871 125.429Z" fill="#0033AD"/>
<path d="M500.141 107.356C501.803 104.789 501.103 101.368 498.545 99.6788C495.987 98.0118 492.575 98.7137 490.892 101.28C489.208 103.846 489.93 107.268 492.488 108.957C493.385 109.549 494.434 109.856 495.506 109.856C497.386 109.878 499.114 108.935 500.141 107.356Z" fill="#0033AD"/>
<path d="M489.099 115.844C487.83 115.01 486.103 115.361 485.272 116.633C484.441 117.906 484.791 119.638 486.059 120.472C487.327 121.305 489.055 120.954 489.886 119.682C490.739 118.41 490.389 116.677 489.099 115.844Z" fill="#0033AD"/>
<path d="M501.978 126.438C500.732 126.372 499.66 127.337 499.573 128.587C499.485 129.838 500.469 130.912 501.716 131C502.962 131.066 504.034 130.123 504.121 128.872C504.187 127.6 503.225 126.526 501.978 126.438Z" fill="#0033AD"/>
<path d="M502 112.115C500.207 112.005 498.676 113.387 498.589 115.186C498.479 116.984 499.857 118.52 501.65 118.607C503.443 118.695 504.974 117.335 505.061 115.537C505.171 113.76 503.793 112.203 502 112.115Z" fill="#0033AD"/>
<path d="M515.273 115.625C513.917 116.326 513.371 117.993 514.07 119.353C514.77 120.713 516.432 121.261 517.788 120.56C519.143 119.88 519.69 118.213 519.012 116.853C518.313 115.493 516.651 114.923 515.273 115.625Z" fill="#0033AD"/>
</g>
</g>
<defs>
<clipPath id="clip0_1_3">
<rect width="813.618" height="712.258" fill="white"/>
</clipPath>
<clipPath id="clip1_1_3">
<rect width="82" height="76" fill="white" transform="translate(461 55)"/>
</clipPath>
</defs>
</svg>
